<svg width="56" height="56" xmlns="http://www.w3.org/2000/svg">
 <g>
  <title>Layer 1</title>
  <path fill="none" stroke-width="null" stroke-dasharray="null" stroke-opacity="null" fill-opacity="null" d="m316.69468,270.5688l44.82759,-41.72414l44.82759,41.72414l-44.82759,41.72414l-44.82759,-41.72414z" id="svg_13" stroke="#000"/>
  <text fill="#000000" stroke="#000" stroke-width="0" stroke-dasharray="null" stroke-opacity="null" fill-opacity="null" x="335.51724" y="268.27586" id="svg_16" font-size="24" font-family="sans-serif" text-anchor="start" xml:space="preserve">SOE</text>
  <text fill="#5885ce" stroke="#000" stroke-width="null" stroke-dasharray="null" stroke-opacity="null" x="336.55172" y="288.96552" id="svg_17" font-size="24" font-family="sans-serif" text-anchor="start" xml:space="preserve">BNU</text>
  <text transform="matrix(1.28741 0 0 1.24976 -4.49528 -1.17467)" stroke="#1f2933" fill="#5394d6" x="15.77788" y="15.42406" id="svg_20" font-size="11" font-family="'Racing Sans One'" text-anchor="start" xml:space="preserve" font-weight="normal" font-style="normal">SoE</text>
  <text transform="matrix(1.16696 0 0 1.35261 -6.63414 -8.05491)" stroke="#5394d6" xml:space="preserve" text-anchor="start" font-family="'Racing Sans One'" font-size="11" id="svg_3" y="33.56122" x="18.45918" stroke-dasharray="null" stroke-width="0" fill="#000000">BNU</text>
  <path stroke="#007f00" id="svg_4" d="m7.91424,16.26752l12.97092,-11.80533l18.34388,0l12.97092,11.80533l0,16.69546l-12.97092,11.80533l-18.34388,0l-12.97092,-11.80533l0,-16.69546z" stroke-dasharray="null" stroke-width="0" fill="none"/>
  <path id="svg_5" d="m14.51373,40.5576l0,-30.71428l23.06122,30.71428l-23.06122,0z" stroke-dasharray="null" stroke-width="0" stroke="#007f00" fill="none"/>
  <path id="svg_7" d="m47.10505,24.63383l0,-0.10204l1.49,0.10204l-1.49,0z" stroke-dasharray="null" stroke-width="0" stroke="#007f00" fill="none"/>
  <path id="svg_8" d="m31.16474,23.11087l0,-1.49l1.49,1.49l-1.49,0z" stroke-dasharray="null" stroke-width="0" stroke="#007f00" fill="none"/>
 </g>

</svg>