<svg width="56" height="56" xmlns="http://www.w3.org/2000/svg">

 <g>
  <title>Layer 1</title>
  <text transform="matrix(0.961457 0 0 0.958374 -0.280036 1.64943)" stroke="#387cbc" font-style="normal" font-weight="bold" xml:space="preserve" text-anchor="start" font-family="'Tangerine'" font-size="14" id="svg_24" y="36.09909" x="0.33327" stroke-dasharray="null" fill="#37526d">PADI</text>
  <path id="svg_28" d="m44.11997,42.06414l-0.0264,0.00939l0,-0.01877l0.0264,0.00938zm-0.01917,-0.04626l-0.01203,0.02531l-0.01327,-0.01328l0.0253,-0.01203zm-0.04625,-0.01916l0.00939,0.0264l-0.01878,0l0.00939,-0.0264zm-0.04626,0.01916l0.02531,0.01203l-0.01328,0.01328l-0.01203,-0.02531zm-0.01916,0.04626l0.0264,-0.00938l0,0.01877l-0.0264,-0.00939zm0.01916,0.04626l0.01203,-0.0253l0.01328,0.01328l-0.02531,0.01203l0,0zm0.04626,0.01917l-0.00939,-0.02641l0.01878,0l-0.00939,0.02641zm0.04625,-0.01917l-0.0253,-0.01202l0.01327,-0.01328l0.01203,0.0253zm-0.07896,-0.04626l0,0c0,-0.01806 0.01465,-0.03271 0.03271,-0.03271c0.01806,0 0.03271,0.01465 0.03271,0.03271c0,0.01807 -0.01465,0.03271 -0.03271,0.03271c-0.01807,0 -0.03271,-0.01465 -0.03271,-0.03271l0,0z" fill-opacity="null" stroke-opacity="null" stroke-dasharray="null" stroke-width="0" stroke="#387cbc" fill="#37526d"/>
  <path id="svg_29" d="m25.28778,38.47243l-0.0264,0.00939l0,-0.01877l0.0264,0.00938zm-0.01917,-0.04626l-0.01203,0.02531l-0.01327,-0.01328l0.0253,-0.01203zm-0.04625,-0.01916l0.00939,0.0264l-0.01878,0l0.00939,-0.0264zm-0.04626,0.01916l0.02531,0.01203l-0.01328,0.01328l-0.01203,-0.02531zm-0.01916,0.04626l0.0264,-0.00938l0,0.01877l-0.0264,-0.00939zm0.01916,0.04626l0.01203,-0.0253l0.01328,0.01328l-0.02531,0.01203l0,0zm0.04626,0.01917l-0.00939,-0.02641l0.01878,0l-0.00939,0.02641zm0.04625,-0.01917l-0.0253,-0.01202l0.01327,-0.01328l0.01203,0.0253zm-0.07896,-0.04626l0,0c0,-0.01806 0.01465,-0.03271 0.03271,-0.03271c0.01806,0 0.03271,0.01465 0.03271,0.03271c0,0.01807 -0.01465,0.03271 -0.03271,0.03271c-0.01807,0 -0.03271,-0.01465 -0.03271,-0.03271l0,0z" fill-opacity="null" stroke-opacity="null" stroke-dasharray="null" stroke-width="0" stroke="#387cbc" fill="#37526d"/>
  <path id="svg_30" d="m45.67314,43.61731l-0.0264,0.00939l0,-0.01877l0.0264,0.00938zm-0.01917,-0.04626l-0.01203,0.02531l-0.01327,-0.01328l0.0253,-0.01203zm-0.04625,-0.01916l0.00939,0.0264l-0.01878,0l0.00939,-0.0264zm-0.04626,0.01916l0.02531,0.01203l-0.01328,0.01328l-0.01203,-0.02531zm-0.01916,0.04626l0.0264,-0.00938l0,0.01877l-0.0264,-0.00939zm0.01916,0.04626l0.01203,-0.0253l0.01328,0.01328l-0.02531,0.01203l0,0zm0.04626,0.01917l-0.00939,-0.02641l0.01878,0l-0.00939,0.02641zm0.04625,-0.01917l-0.0253,-0.01202l0.01327,-0.01328l0.01203,0.0253zm-0.07896,-0.04626l0,0c0,-0.01806 0.01465,-0.03271 0.03271,-0.03271c0.01806,0 0.03271,0.01465 0.03271,0.03271c0,0.01807 -0.01465,0.03271 -0.03271,0.03271c-0.01807,0 -0.03271,-0.01465 -0.03271,-0.03271l0,0z" fill-opacity="null" stroke-opacity="null" stroke-dasharray="null" stroke-width="0" stroke="#387cbc" fill="#37526d"/>
  <path stroke="#387cbc" id="svg_31" d="m29.94729,40.60804l-0.0264,0.00939l0,-0.01877l0.0264,0.00938zm-0.01917,-0.04626l-0.01203,0.02531l-0.01327,-0.01328l0.0253,-0.01203zm-0.04625,-0.01916l0.00939,0.0264l-0.01878,0l0.00939,-0.0264zm-0.04626,0.01916l0.02531,0.01203l-0.01328,0.01328l-0.01203,-0.02531zm-0.01916,0.04626l0.0264,-0.00938l0,0.01877l-0.0264,-0.00939zm0.01916,0.04626l0.01203,-0.0253l0.01328,0.01328l-0.02531,0.01203l0,0zm0.04626,0.01917l-0.00939,-0.02641l0.01878,0l-0.00939,0.02641zm0.04625,-0.01917l-0.0253,-0.01202l0.01327,-0.01328l0.01203,0.0253zm-0.07896,-0.04626l0,0c0,-0.01806 0.01465,-0.03271 0.03271,-0.03271c0.01806,0 0.03271,0.01465 0.03271,0.03271c0,0.01807 -0.01465,0.03271 -0.03271,0.03271c-0.01807,0 -0.03271,-0.01465 -0.03271,-0.03271l0,0z" fill-opacity="null" stroke-opacity="null" stroke-dasharray="null" stroke-width="0" fill="#37526d"/>
  <path id="svg_32" d="m43.32677,36.40057c-0.04166,-0.28109 0.63233,-0.94861 1.12344,-1.51859c0.38992,-0.45072 0.81567,-0.99707 1.22118,-1.47912c0.33896,-0.4029 1.08695,-1.08301 1.17126,-1.52352c0.0985,-0.51464 0.27464,-1.46303 0.46383,-2.17075c0.14392,-0.54082 0.41701,-1.2519 0.56546,-1.26436c0.05757,-0.00484 0.10689,0.25307 0.10689,0.25307c0,0 0.15606,1.71843 0.50161,2.54681c0.13792,0.33142 0.53764,0.31812 0.68465,0.29761c0.98113,-0.13683 2.26966,0.13807 2.26966,0.13807c0,0 0.4187,-0.55647 0.48871,-0.61565c0.1775,-0.14646 -0.00018,0.20502 0.43804,0.84261c0.24027,0.34956 0.37224,0.24798 0.56187,0.1346c0.07645,-0.047 0.12203,-0.20043 0.18529,-0.28919c0.08096,-0.11313 1.70991,-2.23998 1.87525,-2.33566c0.16534,-0.09568 0.15812,0.51636 0.13087,0.66524c-0.30038,1.64085 -1.11579,2.76973 -1.11579,2.76973c0,0 -0.06296,0.24015 -0.03463,0.49381c0.02563,0.23031 0.46266,1.92278 0.23356,1.82009c-0.09522,0.01978 -0.32995,-0.1894 -0.32995,-0.1894c0,0 -0.23552,-0.25337 -0.40402,-0.61273c-0.11918,-0.25556 -0.18859,-0.65251 -0.18859,-0.65251c0,0 -0.05416,-0.32268 -0.21437,-0.41591c-0.387,-0.22521 -0.67595,0.03219 -0.77534,0.25437c-0.08515,0.18998 -0.03284,0.50992 -0.03284,0.50992c0,0 0.12039,0.25235 0.04678,0.26539c-0.31931,0.05322 -0.46847,-0.39636 -0.69049,-0.64523c-0.07736,-0.08598 -0.19571,-0.22842 -0.39607,0.06441c-0.10073,0.14722 -0.17389,0.90169 -0.33056,1.15267c-0.10554,0.16907 -0.27433,-0.02581 -0.27433,-0.02581c0,0 -0.25681,-0.17202 -0.43835,-0.18159c-0.82787,0.78878 -2.33142,1.51322 -2.33142,1.51322c0,0 0.20043,0.45845 0.30552,0.7746c0.05216,0.15765 0.05007,0.29355 0.05007,0.29355c0,0 0.05232,0.21593 -0.05667,0.24595c-0.06461,0.01741 -0.69319,-0.18345 -1.02899,-0.43711c-0.28274,-0.21377 -0.5061,-0.52675 -0.5061,-0.52675c0,0 -1.0289,0.16295 -1.68881,0.21517c-0.38437,0.0293 -1.52939,0.01904 -1.58662,-0.36701z" stroke-dasharray="null" stroke-width="null" fill="#387cbc"/>
  <polyline stroke-linecap="round" id="svg_37" points="46.63102611526847,33.98516845703125 46.63102611526847,33.98516845703125 46.63102611526847,33.98516845703125 " stroke-dasharray="null" stroke-width="null" fill="none"/>
  <polyline stroke-linecap="round" id="svg_38" points="34.53658397574417,46.68292173954838 34.53658397574417,46.68292173954838 " fill-opacity="null" stroke-opacity="null" stroke-dasharray="null" stroke-width="null" stroke="null" fill="none"/>
  <polyline stroke-linecap="round" id="svg_39" points="34.63414493060602,48.829262746509144 34.63414493060602,48.829262746509144 34.63414493060602,48.829262746509144 " fill-opacity="null" stroke-opacity="null" stroke-dasharray="null" stroke-width="null" stroke="null" fill="none"/>
  <path stroke="null" d="m46.53658,33.12195c0,0 0.09756,0 0.09756,0c0,0 0,0 0.09756,0c0,0 0.09756,0 0.09756,0c0,0 0,0 0,0c0.09756,0.09756 0.09756,0.09756 0.19512,0.09756c0,0 0,0 0,0c0,0 0,0 0,0c0.09756,0 0.09756,0 0.09756,0c0,0 0,0 0.09756,0.09756l0,0l0,0l0,0" id="svg_40" fill-opacity="null" stroke-opacity="null" stroke-dasharray="null" stroke-width="null" fill="none"/>
 </g>
</svg>